<svg width="284" height="284" viewBox="0 0 284 284" fill="none" xmlns="http://www.w3.org/2000/svg">
<path d="M47.1114 0.192767C44.4811 0.492282 38.0886 2.0897 35.1254 3.18792C17.4129 9.77726 4.92755 24.3204 0.765768 43.2231L0 46.7175V237.409L0.765768 240.903C2.43048 248.458 5.56014 255.679 9.72192 261.536C12.6185 265.596 18.445 271.387 22.4736 274.249C28.3001 278.376 35.6582 281.571 43.216 283.235L46.612 284H237.388L240.784 283.235C262.692 278.409 278.407 262.701 283.234 240.803L284 237.409V46.7175L283.234 43.3229C279.971 28.5136 271.748 16.4332 259.529 8.51264C252.803 4.18631 244.913 1.25772 237.222 0.325892C234.558 -0.00690272 50.0413 -0.140028 47.1114 0.192767Z" fill="black"/>
<path d="M231.848 49.8291C231.448 50.2617 231.45 50.2908 228.188 54.0513C224.891 57.8119 220.83 62.471 219.165 64.4012C217.169 66.675 216.068 69.5972 216.068 72.6227V137.282C216.068 151.398 204.625 162.842 190.508 162.842H187.199C180.422 162.842 173.922 160.151 169.129 155.36L153.409 139.646C148.791 135.031 144.64 130.773 141.162 127.186C134.507 120.321 136.164 115.937 145.725 115.92C146.55 115.919 147.392 115.918 148.248 115.918H155.71C162.487 115.918 168.986 118.609 173.779 123.4L176.781 126.401C187.269 136.884 187.269 136.884 188.667 136.884C189.458 136.884 190.099 136.243 190.099 135.452V87.6383C190.099 78.8019 182.887 71.6644 174.051 71.756C160.8 71.8559 157.337 71.989 154.474 72.4549C134.131 75.8494 116.419 86.9647 104.799 103.604C102.335 107.132 98.9393 113.089 98.0403 115.452C97.6763 116.382 97.8975 117.439 98.6038 118.145L174.909 194.416C191.016 210.516 179.613 238.053 156.839 238.053H91.3779C77.3634 238.053 65.9625 226.769 65.8192 212.755L65.5784 189.199C65.5784 148.432 65.6783 139.613 66.0779 135.719C68.5416 112.557 78.4966 91.7237 95.0439 75.1505C111.791 58.3777 133.798 48.1276 157.471 46.0643C159.202 45.8979 177.48 45.7648 198.056 45.7315L229.979 45.7031C232.118 45.7012 233.26 48.2227 231.848 49.8291Z" fill="#E5E5E5"/>
<path d="M91.5479 179.981V193.23C91.5479 203.649 100.033 212.096 110.452 212.096C127.212 212.096 135.697 191.83 123.843 179.981C106.164 162.309 91.6811 147.866 91.6478 147.866C91.5812 147.866 91.5479 162.309 91.5479 179.981Z" fill="black"/>
</svg>
