<svg width="500" height="500" viewBox="0 0 500 500" fill="none" xmlns="http://www.w3.org/2000/svg">
<path fill-rule="evenodd" clip-rule="evenodd" d="M290.428 135.948L226.841 70C217.637 85.5385 208.714 112.962 221.543 132.76C215.316 133.253 209.365 134.189 204.762 135.832C175.396 146.311 143.173 173.385 127.336 229.715C122.751 246.026 114.497 253.837 104.688 263.121C95.4338 271.878 84.796 281.945 74.5464 301.693C53.4304 342.375 110.418 383.059 151.972 346.108C175.334 325.334 195.755 316.758 212.9 309.558C237.576 299.194 255.466 291.681 265.572 254.751C270.38 271.977 268.457 312.632 222.301 337.437C176.146 362.243 166.53 414.496 167.491 430H430C430 282.811 408.085 155.64 290.428 135.948Z" fill="#34364C"/>
</svg>
